<?xml version="1.0" encoding="utf-8"?>
<svg version="1.1" id="Layer_1"
xmlns="http://www.w3.org/2000/svg"
xmlns:xlink="http://www.w3.org/1999/xlink"
width="177px" height="179px"
xml:space="preserve">
<g id="PathID_1" transform="matrix(1.05068, 0, 0, 1.05068, 0.1, 0)" opacity="1">
<linearGradient
id="LinearGradID_1" gradientUnits="userSpaceOnUse" gradientTransform="matrix(-4.47012e-009, 0.102264, -0.102264, -4.47012e-009, 83.7, 84.85)" spreadMethod ="pad" x1="-819.2" y1="0" x2="819.2" y2="0" >
<stop  offset="0" style="stop-color:#FFFFFF;stop-opacity:1" />
<stop  offset="0.498039" style="stop-color:#85FB15;stop-opacity:1" />
<stop  offset="0.501961" style="stop-color:#53C900;stop-opacity:1" />
<stop  offset="1" style="stop-color:#85FB15;stop-opacity:1" />
</linearGradient>
<path style="fill:url(#LinearGradID_1) " d="M163.7 59.4L151.15 63.55L150.25 60.7L162.75 56.55L163.7 59.4M166.45 70.9L153.45 73.2L153 70.2L165.9 67.95L166.45 70.9M167.05 94.5L153.9 93.1L154.25 90.1L167.25 91.5L167.05 94.5M167.5 82.65L154.4 83.1L154.25 80.1L167.35 79.65L167.5 82.65M164.85 106.1L152.1 102.9L152.9 100L165.55 103.2L164.85 106.1M121.85 24.6L119.45 22.95L126.35 11.7L128.85 13.3L121.85 24.6M138.15 20.45L129.75 30.55L127.45 28.6L136 18.5L138.15 20.45M134.85 35.4L144.6 26.4L146.55 28.7L136.8 37.55L134.85 35.4M142.75 45.5L141.15 43L151.95 35.6L153.7 38.05L142.75 45.5M159.45 48.4L147.6 54.25L146.35 51.5L158.05 45.75L159.45 48.4M113.2 19.85L110.55 18.6L115.85 6.4L118.6 7.7L113.2 19.85M107.6 3.55L104 16.3L101.15 15.5L104.85 2.75L107.6 3.55M94.35 14.1L91.5 13.65L93.35 0.55L96.2 1L94.35 14.1M84.6 13.3L81.6 13.3L81.6 0L84.6 0L84.6 13.3M73 0.8L74.7 13.9L71.85 14.35L70 1.15L73 0.8M65.05 15.85L62.15 16.65L58.6 3.9L61.5 3.1L65.05 15.85M53.1 20.45L47.7 8.25L50.45 7L55.75 19.2L53.1 20.45M44.45 25.4L37.55 14.1L40.1 12.5L47 23.8L44.45 25.4M30.55 19.4L38.95 29.5L36.65 31.5L28.25 21.25L30.55 19.4M14.8 36.75L25.6 44.15L24 46.65L13.1 39.2L14.8 36.75M31.8 36.4L29.85 38.6L20.1 29.75L22.05 27.45L31.8 36.4M7.55 49.65L8.8 46.9L20.65 52.75L19.3 55.5L7.55 49.65M14.35 71.6L13.75 74.6L0.9 72.3L1.45 69.3L14.35 71.6M15.95 64.8L3.4 60.7L4.35 57.9L16.85 61.95L15.95 64.8M13.75 94.5L0.65 95.85L0.45 92.85L13.4 91.5L13.75 94.5M13.1 84.6L-0.05 84.15L0.1 81.05L13.2 81.6L13.1 84.6M44 144.05L36.3 154.75L33.9 153L41.6 142.3L44 144.05M23.65 122.55L12.4 129.2L10.9 126.55L22.15 119.9L23.65 122.55M7 118.65L5.85 115.85L18 110.9L19.05 113.7L7 118.65M15.05 101.4L15.7 104.25L3.1 107.5L2.25 104.6L15.05 101.4M17.35 136.45L27.55 128.3L29.4 130.6L19.15 138.85L17.35 136.45M36.3 137.85L27.1 147.35L25.05 145.3L34.1 135.75L36.3 137.85M68.5 168.3L65.6 167.6L68.25 154.75L71.25 155.3L68.5 168.3M78.05 156.2L81.05 156.35L80.1 169.7L77.1 169.45L78.05 156.2M46.4 160.8L43.8 159.35L49.85 147.6L52.5 149.1L46.4 160.8M54.35 164.25L58.85 151.85L61.7 152.9L57.25 165.3L54.35 164.25M146.1 118.75L157.35 125.4L155.85 127.95L144.6 121.25L146.1 118.75M148.95 112.4L150.1 109.65L162.3 114.6L161.15 117.35L148.95 112.4M127 141.4L134.85 152.2L132.4 153.9L124.7 143.25L127 141.4M134.35 134.85L143.55 144.4L141.4 146.45L132.3 136.9L134.35 134.85M140.8 127.15L151.15 135.3L149.3 137.7L138.95 129.55L140.8 127.15M118.85 147.05L125.05 158.75L122.4 160.15L116.2 148.4L118.85 147.05M114.5 163.8L111.7 164.85L107.25 152.3L110 151.3L114.5 163.8M91.85 169.35L88.85 169.55L87.9 156.35L90.9 156.1L91.85 169.35M100.55 154.4L103.35 167.4L100.45 167.95L97.7 154.95L100.55 154.4" />
</g>
<g id="PathID_2" transform="matrix(1.05068, 0, 0, 1.05068, 0.1, 0)" opacity="1">
</g>
<g id="PathID_3" transform="matrix(1.0446, 0, 0, 1.0446, 88.55, 89.55)" opacity="1">
<linearGradient
id="LinearGradID_2" gradientUnits="userSpaceOnUse" gradientTransform="matrix(-3.5777e-009, 0.0818481, -0.0818481, -3.5777e-009, 0, -0.05)" spreadMethod ="pad" x1="-819.2" y1="0" x2="819.2" y2="0" >
<stop  offset="0" style="stop-color:#46B2F8;stop-opacity:1" />
<stop  offset="0.505882" style="stop-color:#82EEFF;stop-opacity:1" />
<stop  offset="1" style="stop-color:#46B2F8;stop-opacity:1" />
</linearGradient>
<path style="fill:url(#LinearGradID_2) " d="M29.55 -34.45Q32.5 -33.4 37.6 -34.45Q42.35 -29.75 37.6 -24.1L36.7 -22.65Q36.15 -21.9 35.05 -21.5L28.45 -22.1Q24.45 -22.8 21.85 -24.4Q19.2 -26.1 11.55 -27.8Q3.9 -29.6 4.75 -27.2Q5.65 -24.85 9.05 -25.2Q12.45 -25.5 14.7 -24.35Q16.85 -23.2 18.9 -22.65Q21 -22.1 23.15 -20.35L27 -17.3Q28.5 -16.55 28.45 -15.2Q28.3 -13.9 27.35 -12.3L25.8 -10.25Q25.1 -9.25 25.15 -8.45Q25.2 -7.6 26.75 -7.2L29.55 -5.55Q27.85 -4.5 26.2 -4.9Q24.45 -5.3 22.95 -7.05Q21.4 -8.85 20.7 -10.85Q19.9 -12.95 16.65 -15.6Q13.3 -18.4 9.4 -19.45Q5.45 -20.6 3.15 -18.7Q1.05 -17.05 0.5 -15Q-0.05 -12.9 1.75 -10.2Q10.85 2.2 15.2 15.7Q17.55 24.7 17.05 32.15Q16.45 39.5 13.8 44.9Q11.15 50.4 7.15 53.5Q4.9 55.25 2.45 56.1L-1.5 57Q-4.5 57.2 -7.4 56.1L-10.6 54.55Q-15.05 51.7 -18.55 45.3Q-11.5 50 -6.85 51Q-2.2 52.1 0.35 50.45Q2.85 48.7 3.4 45.4Q3.9 41.9 2.75 37.7Q1.55 33.5 -1.2 29.45Q-3.9 25.45 -8 22.55Q-12.2 19.6 -17.4 18.75Q-22.65 17.9 -28.85 20.1Q-35.05 22.3 -42 28.45Q-40.1 22.2 -37.4 16Q-35.85 12.35 -41.75 14.6Q-47.6 15.3 -50.5 16.45Q-53.45 17.55 -58.45 20.2Q-63.45 22.8 -63.2 26.6Q-64.9 24.15 -63.9 21.9Q-62.9 19.6 -60.1 17.45Q-57.35 15.25 -53.7 13.05L-46.25 8.75Q-44.9 7.9 -45.3 7.3Q-45.7 6.55 -47.1 5.95L-50.45 4.8L-58.75 4.45L-67.05 5.5Q-53.6 -4.5 -40.85 -5.9Q-28.1 -7.35 -16.2 0.7Q-4.35 8.75 6.6 27Q6 22.2 3.6 17.6Q1.3 13.15 -1.9 8.85L-8.4 0.45Q-11.75 -3.7 -14.35 -7.85Q-16.95 -11.95 -18.15 -16.2Q-19.4 -20.35 -18.35 -24.75Q-17.35 -29.15 -13.3 -33.8Q-11.4 -36.05 -12.2 -36.8L-15.8 -36.7Q-15.05 -38.15 -13.85 -38.95Q-12.6 -39.75 -10.6 -39.65Q-8.9 -39.3 -8.55 -40.1Q-8.2 -40.85 -9.05 -41.85Q-9.85 -42.75 -11.55 -43.15Q-41.05 -45.1 -35 -51.35Q-33.85 -47.7 -21.8 -48.2Q-15.2 -48.45 -11.4 -48.1Q-20.2 -54.7 -18.1 -57.1Q-8.35 -49.2 -4 -49.35L7 -48.55Q13.65 -47.65 17.45 -44.8Q21.15 -42 19.3 -40.35Q20.45 -39.05 23.55 -37.25Q26.6 -35.45 29.55 -34.45M10.85 -40.35Q9.3 -41.15 4.4 -42.4Q9.8 -37.45 10.55 -37.7L13.75 -38.8L10.85 -40.35M36.9 -18.4Q39.35 -18.5 39.75 -20.65L42.85 -17.25L45.85 -14.35Q47.3 -13.3 48.45 -13.65Q49.6 -14.1 50.3 -16.75Q53.1 -10.4 59.05 -5.55Q56.1 -5.55 55.8 -4.75Q55.5 -4.1 57.1 -3.15Q58.65 -2.25 61.35 -1.75Q64 -1.25 67.05 -1.85Q63 1.4 60 1.8Q56.95 2.2 54.75 0.85Q52.5 -0.45 50.75 -2.55L47.5 -6.5Q46.05 -8.45 44.5 -9.15Q42.6 -4.65 38.6 -6.2Q40.35 -7.75 39.4 -9.5Q38.4 -11.15 35.8 -13L30.2 -16.75Q27.05 -18.65 24.6 -20.5L31.15 -19.1Q34.55 -18.25 36.9 -18.4" />
</g>
<g id="PathID_4" transform="matrix(1.0446, 0, 0, 1.0446, 88.55, 89.55)" opacity="1">
</g>
</svg>
